<svg width="15" height="13" viewBox="0 0 15 13" fill="none" xmlns="http://www.w3.org/2000/svg">
<path d="M13.4915 7.25682L14.2617 7.25682L14.2617 5.71633L13.4915 5.71633L13.4915 7.25682ZM0.622906 5.94192C0.322106 6.24272 0.322106 6.73042 0.622906 7.03121L5.52471 11.933C5.82551 12.2338 6.3132 12.2338 6.614 11.933C6.9148 11.6322 6.9148 11.1445 6.614 10.8437L2.25684 6.48657L6.614 2.12941C6.9148 1.82861 6.9148 1.34092 6.614 1.04012C6.3132 0.739323 5.82551 0.739323 5.52471 1.04012L0.622906 5.94192ZM13.4915 5.71633L1.16755 5.71633L1.16755 7.25681L13.4915 7.25682L13.4915 5.71633Z" fill="white"/>
</svg>
